<?xml version="1.0" encoding="utf-8"?><!DOCTYPE svg PUBLIC "-//W3C//DTD SVG 1.1//EN" "http://www.w3.org/Graphics/SVG/1.1/DTD/svg11.dtd"><svg version="1.1" xmlns="http://www.w3.org/2000/svg" xmlns:xlink="http://www.w3.org/1999/xlink" width="32" height="32" viewBox="0 0 32 32" data-tags="webpack"><g fill="#444" transform="scale(0.03125 0.03125)"><path fill="rgb(141, 214, 249)" d="M896.67 773.129l-369.694 208.205v-162.163l230.34-126.153zM921.958 750.327v-435.426l-135.287 77.739v279.863zM124.83 773.129l369.694 208.205v-162.163l-230.34-126.153zM99.541 750.327v-435.426l135.283 77.739v279.863zM115.371 286.729l379.153-213.572v156.791l-244.753 134.076zM906.133 286.729l-379.157-213.572v156.791l244.753 134.080zM494.528 782.285l-227.251-124.395v-246.498l227.243 130.645zM526.976 782.285l227.243-124.395v-246.498l-227.243 130.645zM282.667 382.865l228.126-124.928 228.13 124.928-228.13 131.174z" /></g></svg>